# xmcd
#
# Track frame offsets:
# 150
# 16911
# 36632
# 54928
# 73960
# 92542
# 105295
#
# Disc length: 1638 seconds
#
#
# Revision: 0
# Processed by: cddbd v1.5.2PL0 Copyright (c) Steve Scherf et al.
# Submitted via: FreeRIP 2.943 
#
DISCID=53066407
DTITLE=mico de noche - cherries
DYEAR=2007
DGENRE=Noise
TTITLE0=dirty unicorn
TTITLE1=marijuana party
TTITLE2=tu's place
TTITLE3=mower
TTITLE4=out of control
TTITLE5=le strut
TTITLE6=untervention
EXTD=
EXTT0=
EXTT1=
EXTT2=
EXTT3=
EXTT4=
EXTT5=
EXTT6=
PLAYORDER=
